<svg viewBox="0 0 30 30" class="speechBubbleThin" ><path d="M22.7532,22.5338 C23.5213,22.526 24.4345,22.3433 25.1469,22.0548 C25.8531,21.7522 26.626,21.2326 27.1737,20.6925 C27.7104,20.1418 28.2256,19.366 28.5258,18.657 C28.8118,17.9425 28.9924,17.0289 29,16.2589 L29,8.27491 C29,6.61379 28.3442,5.01878 27.1737,3.84128 C26.003,2.66345 24.413,2 22.7532,2 L7.24684,2 C5.58696,2 3.99703,2.663451 2.82627,3.84128 C1.65583,5.01878 1,6.61379 1,8.27491 L1,16.2589 C1.00759057,17.0289 1.188247,17.9425 1.47422,18.657 C1.774375,19.366 2.28965,20.1418 2.82627,20.6925 C3.99703,21.8703 5.58697,22.5338 7.24684,22.5338 L11.7911,22.5338 L16.4207,28.1234 C16.9695,28.6766 17.7145,28.9926 18.4958,28.9999 L18.5012,29 C18.8901,28.9902 19.4592,28.8509 19.8108,28.6796 L19.8132,28.6782 L19.8164,28.6764 C20.2232,28.4396 20.7254,27.932 20.9561,27.5241 C21.1266,27.1583 21.2407,26.586 21.2417,26.1352 L21.2468,26.1352 L21.2468,22.5338 L22.7532,22.5338 Z M19.2468,25.9913 C19.2436,26.0374 19.2418,26.0839 19.2417,26.1308 C19.2416,26.2031 19.2306,26.3254 19.2028,26.4621 C19.1908,26.521 19.1786,26.5682 19.1684,26.6033 C19.1321,26.6491 19.0849,26.7028 19.0304,26.7579 C18.9756,26.8133 18.922,26.8615 18.8759,26.8988 C18.8715,26.9023 18.8673,26.9057 18.8632,26.9089 C18.8156,26.9252 18.7578,26.9422 18.6948,26.9576 C18.6312,26.9732 18.5719,26.9847 18.5225,26.9922 C18.5009,26.9954 18.4843,26.9974 18.4724,26.9987 C18.2567,26.9872 18.0509,26.9031 17.8881,26.7597 L13.3313,21.258 C12.9514,20.7993 12.3867,20.5338 11.7911,20.5338 L7.24684,20.5338 C6.12471,20.5338 5.04788,20.0867 4.25193,19.2898 C3.89579,18.9221 3.52751,18.3689 3.32374,17.8955 C3.13499,17.4156 3.00643,16.7622 3,16.2478 L3,8.27491 C3,7.14032 3.44804,6.05273 4.24473,5.25123 C5.04138,4.44977 6.12132,4 7.24684,4 L22.7532,4 C23.8787,4 24.9586,4.44977 25.7553,5.25123 C26.552,6.05273 27,7.14032 27,8.27491 L27,16.2478 C26.9936,16.7622 26.865,17.4156 26.6763,17.8955 C26.4739,18.3657 26.1091,18.9147 25.7552,19.2824 C25.3897,19.6384 24.8438,20.0052 24.3776,20.2085 C23.9015,20.3978 23.2514,20.5272 22.7419,20.5338 L21.2468,20.5338 C20.1423,20.5338 19.2468,21.4292 19.2468,22.5338 L19.2468,25.9913 Z M8,9 L8,11 L22,11 L22,9 L8,9 Z M8,14 L8,16 L18,16 L18,14 L8,14 Z"></path></svg>