<svg viewBox="0 0 14 14" class="help" ><path d="M6.3,11.2 L6.3,9.8 L7.7,9.8 L7.7,11.2 L6.3,11.2 Z M7,0 C10.864,0 14,3.136 14,7 C14,10.864 10.864,14 7,14 C3.136,14 0,10.864 0,7 C0,3.136 3.136,0 7,0 Z M7,12.6 C10.087,12.6 12.6,10.087 12.6,7 C12.6,3.913 10.087,1.4 7,1.4 C3.913,1.4 1.4,3.913 1.4,7 C1.4,10.087 3.913,12.6 7,12.6 Z M7,2.8 C8.547,2.8 9.8,4.053 9.8,5.6 C9.8,7.35 7.7,7.525 7.7,9.1 L6.3,9.1 C6.3,6.825 8.4,7 8.4,5.6 C8.4,4.83 7.77,4.2 7,4.2 C6.23,4.2 5.6,4.83 5.6,5.6 L4.2,5.6 C4.2,4.053 5.453,2.8 7,2.8 Z"></path></svg>