<svg viewBox="0 0 30 30" class="collectionHide"><path d="M26.6,0 L22.385,4.214 C19.976,2.883 17.337,2 15,2 C8.641,2 0,8.469 0,13 C0,15.455 2.542,18.468 5.878,20.722 L2,24.6 L3.4,26 L28,1.4 L26.6,0 Z M10.837,15.763 C10.31,14.971 9.99999,14.022 9.99999,13 C9.99999,10.239 12.238,8 15,8 C16.022,8 16.972,8.31 17.764,8.836 L10.837,15.763 Z M19.194,7.405 C18.025,6.526 16.576,6 15,6 C11.134,6 8,9.134 8,13 C8,14.576 8.526,16.025 9.40499,17.195 L7.299,19.301 C4.272,17.313 2,14.675 2,13 C2,10.025 9.149,4 15,4 C16.94,4 19.021,4.667 20.938,5.662 L19.194,7.405 Z M15,18 C14.76,18 14.53,17.962 14.299,17.929 L12.644,19.585 C13.381,19.849 14.172,20 15,20 C18.866,20 22,16.866 22,13 C22,12.172 21.849,11.381 21.585,10.643 L19.93,12.299 C19.962,12.53 20,12.76 20,13 C20,15.761 17.762,18 15,18 Z M25.746,6.481 L24.335,7.893 C26.506,9.657 28,11.644 28,13 C28,15.975 20.851,22 15,22 C13.707,22 12.353,21.694 11.024,21.204 L9.50999,22.717 C11.364,23.509 13.264,24.001 14.998,24.001 C21.357,24.001 29.998,17.532 29.998,13.001 C30,10.963 28.247,8.538 25.746,6.481 Z"></path></svg>