<svg viewBox="0 0 26 26" class="mobileTopbarMore"><path d="M7.19922 13.2549C7.19922 12.0625 6.23242 11.1064 5.01855 11.1064C3.83691 11.1064 2.87012 12.0625 2.87012 13.2549C2.87012 14.4473 3.83691 15.4033 5.01855 15.4033C6.23242 15.4033 7.19922 14.4473 7.19922 13.2549ZM15.1484 13.2549C15.1484 12.0625 14.1924 11.1064 13 11.1064C11.8184 11.1064 10.8623 12.0625 10.8623 13.2549C10.8623 14.4473 11.8184 15.4033 13 15.4033C14.1924 15.4033 15.1484 14.4473 15.1484 13.2549ZM23.1299 13.2549C23.1299 12.0625 22.1738 11.1064 20.9814 11.1064C19.7676 11.1064 18.8115 12.0625 18.8115 13.2549C18.8115 14.4473 19.7676 15.4033 20.9814 15.4033C22.1738 15.4033 23.1299 14.4473 23.1299 13.2549Z"></path></svg>