<svg viewBox="0 0 26 26" class="mobileBottomBarUpdates" ><path d="M4.48145 20.4092H15.2988C15.2129 21.8594 14.2891 22.7832 12.9893 22.7832C11.7002 22.7832 10.7656 21.8594 10.6904 20.4092H9.01465C9.10059 22.4717 10.7227 24.2871 12.9893 24.2871C15.2666 24.2871 16.8887 22.4824 16.9746 20.4092H21.5078C22.5176 20.4092 23.1299 19.8828 23.1299 19.1094C23.1299 18.0352 22.0342 17.0684 21.1104 16.1123C20.4014 15.3711 20.208 13.8457 20.1221 12.6104C20.0469 8.37793 18.9512 5.63867 16.0938 4.60742C15.7285 3.21094 14.5791 2.09375 12.9893 2.09375C11.4102 2.09375 10.25 3.21094 9.89551 4.60742C7.03809 5.63867 5.94238 8.37793 5.86719 12.6104C5.78125 13.8457 5.58789 15.3711 4.87891 16.1123C3.94434 17.0684 2.85938 18.0352 2.85938 19.1094C2.85938 19.8828 3.46094 20.4092 4.48145 20.4092ZM4.94336 18.7871V18.6582C5.13672 18.3359 5.78125 17.7129 6.33984 17.0791C7.11328 16.2197 7.47852 14.8447 7.5752 12.7393C7.66113 8.05566 9.05762 6.55176 10.8945 6.05762C11.1631 5.99316 11.3135 5.85352 11.3242 5.58496C11.3564 4.45703 12.001 3.67285 12.9893 3.67285C13.9883 3.67285 14.6221 4.45703 14.665 5.58496C14.6758 5.85352 14.8154 5.99316 15.084 6.05762C16.9316 6.55176 18.3281 8.05566 18.4141 12.7393C18.5107 14.8447 18.876 16.2197 19.6387 17.0791C20.208 17.7129 20.8418 18.3359 21.0352 18.6582V18.7871H4.94336Z"></path></svg>