<svg viewBox="0 0 26 26" class="mobileTopbarShare" ><path d="M13 16.166C13.4619 16.166 13.8486 15.7793 13.8486 15.3281V4.2959L13.7842 2.68457L14.5039 3.44727L16.1367 5.1875C16.2871 5.35938 16.5127 5.44531 16.7168 5.44531C17.1572 5.44531 17.501 5.12305 17.501 4.68262C17.501 4.45703 17.4043 4.28516 17.2432 4.12402L13.6123 0.62207C13.3975 0.407227 13.2148 0.332031 13 0.332031C12.7744 0.332031 12.5918 0.407227 12.377 0.62207L8.74609 4.12402C8.58496 4.28516 8.48828 4.45703 8.48828 4.68262C8.48828 5.12305 8.81055 5.44531 9.26172 5.44531C9.46582 5.44531 9.70215 5.35938 9.85254 5.1875L11.4854 3.44727L12.2051 2.68457L12.1406 4.2959V15.3281C12.1406 15.7793 12.5381 16.166 13 16.166ZM6.83398 24.5771H19.1553C21.4004 24.5771 22.5283 23.46 22.5283 21.2471V10.5264C22.5283 8.31348 21.4004 7.19629 19.1553 7.19629H16.1582V8.92578H19.123C20.1865 8.92578 20.7988 9.50586 20.7988 10.623V21.1504C20.7988 22.2676 20.1865 22.8477 19.123 22.8477H6.85547C5.78125 22.8477 5.19043 22.2676 5.19043 21.1504V10.623C5.19043 9.50586 5.78125 8.92578 6.85547 8.92578H9.83105V7.19629H6.83398C4.58887 7.19629 3.46094 8.31348 3.46094 10.5264V21.2471C3.46094 23.46 4.58887 24.5771 6.83398 24.5771Z"></path></svg>