<svg viewBox="0 0 26 26" class="mobileBottomBarSearch" ><path d="M11.1416 19.3779C12.9355 19.3779 14.5898 18.7979 15.9434 17.8311L21.0352 22.9229C21.2715 23.1592 21.583 23.2773 21.916 23.2773C22.6143 23.2773 23.1084 22.7402 23.1084 22.0527C23.1084 21.7305 23.001 21.4297 22.7646 21.1934L17.7051 16.123C18.7686 14.7266 19.4023 12.9971 19.4023 11.1172C19.4023 6.57324 15.6855 2.85645 11.1416 2.85645C6.59766 2.85645 2.88086 6.57324 2.88086 11.1172C2.88086 15.6611 6.59766 19.3779 11.1416 19.3779ZM11.1416 17.5947C7.59668 17.5947 4.66406 14.6621 4.66406 11.1172C4.66406 7.57227 7.59668 4.63965 11.1416 4.63965C14.6865 4.63965 17.6191 7.57227 17.6191 11.1172C17.6191 14.6621 14.6865 17.5947 11.1416 17.5947Z"></path></svg>