<svg viewBox="0 0 15 15" class="androidShare" style="width: 16px; height: 16px; display: block; fill: inherit; flex-shrink: 0; backface-visibility: hidden;"><path d="M11.9952,10.6024 C11.4229,10.6024 10.9108,10.8283 10.51928,11.1822 L5.15029999,8.05723 C5.18794999,7.88404 5.21806999,7.71084 5.21806999,7.53012 C5.21806999,7.3494 5.18794999,7.1762 5.15029999,7.00301 L10.45904,3.90813 C10.8657,4.28464 11.4003,4.51807 11.9952,4.51807 C13.2452,4.51807 14.2542,3.50904 14.2542,2.25904 C14.2542,1.00904 13.2452,0 11.9952,0 C10.7452,0 9.73614999,1.00904 9.73614999,2.25904 C9.73614999,2.43976 9.76626999,2.61295 9.80391999,2.78614 L4.49517999,5.88102 C4.08854999,5.50452 3.55391999,5.27108 2.95903999,5.27108 C1.70903999,5.27108 0.699999988,6.28012 0.699999988,7.53012 C0.699999988,8.78012 1.70903999,9.78916 2.95903999,9.78916 C3.55391999,9.78916 4.08854999,9.55572 4.49517999,9.17922 L9.85662999,12.3117 C9.81897999,12.4699 9.79638999,12.6355 9.79638999,12.8012 C9.79638999,14.0136 10.7828,15 11.9952,15 C13.2075,15 14.194,14.0136 14.194,12.8012 C14.194,11.5889 13.2075,10.6024 11.9952,10.6024 Z"></path></svg>